<svg xmlns="http://www.w3.org/2000/svg" viewBox="0 0 740 160" role="img" aria-label="WalletGuard">
  <defs>
    <linearGradient id="mark-bg" x1="10" y1="8" x2="142" y2="152" gradientUnits="userSpaceOnUse">
      <stop stop-color="#0f2d3a"/>
      <stop offset=".52" stop-color="#0b1724"/>
      <stop offset="1" stop-color="#111827"/>
    </linearGradient>
    <linearGradient id="mark-coin" x1="50" y1="45" x2="112" y2="120" gradientUnits="userSpaceOnUse">
      <stop stop-color="#7dd3fc"/>
      <stop offset=".5" stop-color="#2dd4bf"/>
      <stop offset="1" stop-color="#f8c96a"/>
    </linearGradient>
  </defs>
  <rect x="8" y="8" width="144" height="144" rx="32" fill="url(#mark-bg)"/>
  <path d="M44 49c0-8 7-15 15-15h45c8 0 15 7 15 15v62c0 8-7 15-15 15H59c-8 0-15-7-15-15V49Z" fill="#f8fafc" opacity=".09"/>
  <path d="M56 57c0-7 5-12 12-12h34c7 0 12 5 12 12v50c0 7-5 12-12 12H68c-7 0-12-5-12-12V57Z" fill="#0b1724" stroke="#e5eef8" stroke-opacity=".25" stroke-width="4"/>
  <circle cx="84" cy="83" r="30" fill="url(#mark-coin)"/>
  <path d="m69 83 10 10 21-25" fill="none" stroke="#f8fafc" stroke-linecap="round" stroke-linejoin="round" stroke-width="8"/>
  <circle cx="115" cy="79" r="6" fill="#f8fafc"/>
  <text x="184" y="80" fill="#0f172a" font-family="Arial, Helvetica, sans-serif" font-size="52" font-weight="800" letter-spacing="0">WalletGuard</text>
  <text x="187" y="116" fill="#526071" font-family="Arial, Helvetica, sans-serif" font-size="24" font-weight="600" letter-spacing="0">Execution reports for agent wallets</text>
</svg>
